<?xml version="1.0" standalone="no"?>
<!DOCTYPE svg PUBLIC "-//W3C//DTD SVG 20010904//EN"
 "http://www.w3.org/TR/2001/REC-SVG-20010904/DTD/svg10.dtd">
<svg version="1.0" xmlns="http://www.w3.org/2000/svg"
 width="879.000000pt" height="872.000000pt" viewBox="0 0 879.000000 872.000000"
 preserveAspectRatio="xMidYMid meet">

<g transform="translate(0.000000,872.000000) scale(0.100000,-0.100000)"
fill="#000000" stroke="none">
<path d="M4440 8602 c-110 -355 -269 -712 -535 -1202 -172 -318 -291 -563
-321 -665 -21 -72 -27 -118 -31 -231 -10 -266 25 -365 317 -904 274 -508 414
-812 531 -1159 38 -113 69 -208 70 -211 0 -3 28 78 63 180 101 298 236 613
363 850 25 47 66 123 91 170 25 47 75 141 112 210 108 200 200 388 235 480 83
214 86 438 10 666 -22 65 -209 455 -235 489 -15 20 -183 341 -270 515 -121
243 -218 475 -299 716 l-68 202 -33 -106z m127 -1304 c-2 -13 -4 -3 -4 22 0
25 2 35 4 23 2 -13 2 -33 0 -45z"/>
<path d="M2589 6223 c-18 -48 -1101 -3021 -1219 -3348 -32 -88 -119 -328 -194
-533 -75 -205 -136 -374 -136 -377 0 -3 1273 -5 2830 -5 1557 0 2830 1 2830 3
0 1 -42 112 -93 247 l-93 245 -2218 3 c-1456 1 -2215 5 -2211 12 3 5 32 83 64
172 33 90 157 431 276 758 119 327 270 741 335 920 169 467 390 1072 477 1310
41 113 106 292 144 398 38 106 72 199 75 207 5 13 -49 15 -425 15 l-431 0 -11
-27z"/>
<path d="M5197 5292 c-540 -1487 -613 -1687 -669 -1839 l-52 -143 -826 0 -826
0 -93 -232 c-51 -128 -95 -239 -98 -246 -4 -10 250 -12 1263 -10 l1268 3 171
470 c553 1520 640 1754 646 1748 8 -9 45 -107 463 -1258 168 -462 385 -1060
483 -1330 l179 -490 432 -3 c238 -1 432 0 432 2 0 3 -14 42 -31 88 -17 46 -66
180 -109 298 -91 251 -313 862 -477 1310 -125 341 -282 773 -733 2015 -77 215
-156 431 -175 480 l-33 90 -433 2 -434 3 -348 -958z"/>
<path d="M915 1151 c-71 -11 -111 -35 -143 -83 l-27 -41 -3 -309 c-2 -191 1
-322 8 -346 15 -58 68 -107 132 -123 72 -18 502 -18 575 0 63 15 116 68 133
131 7 27 10 144 8 343 l-3 302 -29 42 c-17 26 -46 51 -75 65 -43 21 -59 23
-286 25 -132 1 -263 -2 -290 -6z m493 -224 c9 -6 12 -61 12 -219 0 -183 -2
-214 -17 -230 -15 -16 -36 -18 -238 -18 -158 0 -224 3 -233 12 -9 9 -12 72
-12 220 0 197 1 209 21 229 20 20 29 20 237 17 119 -2 223 -7 230 -11z"/>
<path d="M40 695 l0 -455 325 0 325 0 0 110 0 110 -225 0 -225 0 0 345 0 345
-100 0 -100 0 0 -455z"/>
<path d="M1680 695 l0 -455 95 0 95 0 1 338 c0 320 1 336 17 313 9 -13 96
-158 193 -322 97 -165 182 -305 188 -313 9 -11 47 -15 172 -15 l159 -2 0 38
c0 156 1 806 0 836 l0 37 -95 0 -95 0 -2 -337 -3 -337 -48 85 c-26 46 -114
197 -195 334 l-148 250 -167 3 -167 2 0 -455z"/>
<path d="M2806 1135 c-21 -7 -51 -26 -67 -41 -54 -51 -59 -88 -59 -408 0 -323
4 -344 68 -398 51 -42 116 -50 380 -46 247 4 275 9 321 51 53 49 61 85 61 300
l0 197 -216 0 -216 0 5 -82 4 -83 125 -3 125 -3 -2 -66 c-2 -51 -7 -70 -21
-80 -26 -19 -427 -19 -442 0 -16 19 -17 426 -2 441 7 7 109 12 325 14 l315 3
0 109 0 110 -332 0 c-257 -1 -342 -4 -372 -15z"/>
<path d="M3750 709 c-96 -243 -176 -447 -178 -455 -3 -12 15 -14 109 -12 l113
3 31 77 30 78 202 0 202 0 19 -52 c11 -29 26 -65 33 -81 l12 -27 109 0 c59 0
108 4 108 9 0 5 -29 83 -64 173 -35 89 -103 262 -150 383 -48 121 -98 248
-112 283 l-26 62 -132 0 -131 0 -175 -441z m367 56 c28 -71 54 -140 57 -152
l7 -23 -125 0 c-69 0 -126 2 -126 4 0 2 6 19 14 37 7 19 35 90 61 157 26 68
51 120 55 115 4 -4 30 -66 57 -138z"/>
<path d="M4600 695 l0 -455 95 0 95 0 0 342 0 342 28 -45 c16 -24 102 -170
192 -324 89 -154 170 -288 178 -297 13 -16 35 -18 174 -18 l158 0 0 455 0 455
-95 0 -95 0 -2 -336 -3 -336 -101 174 c-56 95 -144 246 -195 335 l-94 162
-167 1 -168 0 0 -455z"/>
<path d="M6156 1135 c-21 -7 -51 -26 -67 -41 -52 -50 -59 -97 -59 -413 0 -256
2 -290 19 -326 25 -55 70 -91 131 -104 68 -15 464 -14 532 0 64 14 120 65 137
124 6 23 11 122 11 228 l0 187 -209 0 c-240 0 -220 9 -218 -100 l2 -65 122 -3
c138 -3 132 2 124 -95 -2 -40 -7 -50 -28 -58 -13 -5 -111 -9 -217 -9 -150 0
-196 3 -212 14 -18 13 -19 28 -19 221 0 193 1 208 19 221 16 11 77 14 328 14
l308 0 0 110 0 110 -332 0 c-257 -1 -342 -4 -372 -15z"/>
<path d="M7211 1012 c-30 -75 -85 -213 -121 -307 -37 -93 -93 -233 -124 -309
-31 -77 -56 -143 -56 -148 0 -5 50 -7 111 -6 l110 3 33 75 32 75 201 3 201 2
30 -77 30 -78 117 -3 c64 -1 114 1 112 5 -5 8 -190 476 -279 703 -22 58 -49
126 -60 153 l-20 47 -132 0 -131 0 -54 -138z m253 -264 c31 -81 56 -150 56
-153 0 -3 -57 -5 -126 -5 -116 0 -126 1 -120 18 61 162 120 302 126 295 4 -4
33 -74 64 -155z"/>
<path d="M8055 1141 c-32 -14 -73 -60 -87 -99 -8 -23 -13 -87 -13 -172 0 -125
2 -138 24 -177 41 -71 72 -81 316 -93 234 -12 257 -19 263 -78 9 -84 -28 -94
-343 -90 l-244 3 -5 -29 c-8 -37 -7 -115 0 -143 l6 -23 312 0 c180 0 326 4
348 10 45 13 93 66 110 122 16 54 16 239 0 295 -17 57 -56 101 -100 113 -20 5
-131 14 -246 20 -115 6 -217 15 -226 20 -42 22 -24 129 22 132 13 0 28 2 33 3
6 2 124 3 263 4 l252 1 0 73 c0 39 -3 82 -6 95 l-6 22 -327 -1 c-179 0 -335
-4 -346 -8z"/>
</g>
</svg>
